<?xml version="1.0" encoding="UTF-8" standalone="no"?>
<!-- Created with Inkscape (http://www.inkscape.org/) -->

<svg
   width="349.99997"
   height="350"
   viewBox="0 0 92.604157 92.604167"
   version="1.1"
   id="svg11704"
   xml:space="preserve"
   inkscape:export-filename="playtogether.png"
   inkscape:export-xdpi="96"
   inkscape:export-ydpi="96"
   inkscape:version="1.2.2 (732a01da63, 2022-12-09)"
   sodipodi:docname="playtogether.svg"
   xmlns:inkscape="http://www.inkscape.org/namespaces/inkscape"
   xmlns:sodipodi="http://sodipodi.sourceforge.net/DTD/sodipodi-0.dtd"
   xmlns="http://www.w3.org/2000/svg"
   xmlns:svg="http://www.w3.org/2000/svg"><sodipodi:namedview
     id="namedview11706"
     pagecolor="#ffffff"
     bordercolor="#000000"
     borderopacity="0.25"
     inkscape:showpageshadow="2"
     inkscape:pageopacity="0.0"
     inkscape:pagecheckerboard="0"
     inkscape:deskcolor="#d1d1d1"
     inkscape:document-units="px"
     showgrid="false"
     inkscape:zoom="2.1095352"
     inkscape:cx="683.08885"
     inkscape:cy="459.81692"
     inkscape:window-width="1920"
     inkscape:window-height="1017"
     inkscape:window-x="-8"
     inkscape:window-y="-8"
     inkscape:window-maximized="1"
     inkscape:current-layer="layer7" /><defs
     id="defs11701" /><g
     inkscape:groupmode="layer"
     id="layer9"
     inkscape:label="fondo"
     transform="translate(-151.6359,-76.737464)"><rect
       style="fill:#000080;fill-opacity:1;stroke-width:0.255526;stroke-dasharray:none"
       id="rect46641"
       width="92.604164"
       height="92.604164"
       x="151.63589"
       y="76.737465"
       inkscape:export-filename=".\playtogether.png"
       inkscape:export-xdpi="96"
       inkscape:export-ydpi="96" /><path
       id="rect46601"
       style="fill:#808080;fill-opacity:1;stroke-width:0.237067;stroke-dasharray:none"
       d="m 203.82515,89.073502 a 9.9413111,9.8189306 0 0 0 -0.17053,0.0062 v 9.631966 h 0.002 v 11.041712 h -0.0899 v 12.96613 a 21.563541,21.599665 0 0 0 -0.0682,1.64951 21.563541,21.599665 0 0 0 21.56354,21.59972 21.563541,21.599665 0 0 0 0.13488,-0.005 v -10.25209 a 10.952863,11.350028 0 0 1 -0.30127,0.0114 10.952863,11.350028 0 0 1 -10.95282,-11.35021 10.952863,11.350028 0 0 1 0.0227,-0.44545 h -5.1e-4 v -10.8195 h 9.64747 a 10.952863,11.350028 0 0 1 1.28313,-0.0847 10.952863,11.350028 0 0 1 0.30127,0.005 v -10.25733 a 21.563541,21.599665 0 0 0 -0.0796,-0.001 v -0.0387 h -11.35176 v -3.635961 h -0.006 a 9.9413111,9.8189306 0 0 0 0.007,-0.20257 9.9413111,9.8189306 0 0 0 -9.94048,-9.819037 z" /></g><g
     inkscape:groupmode="layer"
     id="layer7"
     inkscape:label="p"
     transform="translate(-151.6359,-76.737464)"><path
       id="path46534"
       style="fill:#ffffff;fill-opacity:1;stroke-width:0.247368;stroke-dasharray:none"
       d="m 191.77135,101.07148 a 22.038757,21.59532 0 0 0 -22.03897,21.59507 22.038757,21.59532 0 0 0 0.0388,1.01544 h -0.0124 v 13.67927 a 9.9773035,9.9773045 0 0 0 -0.0264,0.001 v 19.91868 a 9.9773035,9.9773045 0 0 0 0.48783,0.0181 9.9773035,9.9773045 0 0 0 9.97717,-9.97769 9.9773035,9.9773045 0 0 0 -0.0258,-0.70642 v -5.60327 a 22.038757,21.59532 0 0 0 11.59981,3.25045 22.038757,21.59532 0 0 0 22.03845,-21.59558 22.038757,21.59532 0 0 0 -22.03845,-21.59507 z m -0.0889,10.02161 a 11.573673,11.484986 0 0 1 11.57397,11.48457 11.573673,11.484986 0 0 1 -11.57397,11.48509 11.573673,11.484986 0 0 1 -11.51093,-10.30428 v -0.0765 h -0.004 a 11.573673,11.484986 0 0 1 -0.0584,-1.10433 11.573673,11.484986 0 0 1 11.57346,-11.48457 z"
       inkscape:transform-center-x="17.182892"
       inkscape:transform-center-y="5.7694383" /></g></svg>
