<?xml version="1.0" encoding="UTF-8" standalone="no"?>
<!-- Created with Inkscape (http://www.inkscape.org/) -->

<svg
   width="209.62981"
   height="257.86032"
   viewBox="0 0 55.464552 68.225543"
   version="1.1"
   id="svg11704"
   xml:space="preserve"
   xmlns="http://www.w3.org/2000/svg"
   xmlns:svg="http://www.w3.org/2000/svg"><defs
     id="defs11701" /><g
     id="layer7"
     transform="translate(-162.91004,-78.265853)"><path
       id="rect46601"
       style="display:inline;fill:#808080;fill-opacity:1;stroke-width:0.237067;stroke-dasharray:none"
       d="m 197.0028,78.265857 a 9.9413111,9.8189306 0 0 0 -0.17053,0.0062 v 9.631966 h 0.002 v 11.041712 h -0.0899 v 12.966125 a 21.563541,21.599665 0 0 0 -0.0682,1.64951 21.563541,21.599665 0 0 0 21.56354,21.59972 21.563541,21.599665 0 0 0 0.13488,-0.005 V 124.904 a 10.952863,11.350028 0 0 1 -0.30127,0.0114 10.952863,11.350028 0 0 1 -10.95282,-11.35021 10.952863,11.350028 0 0 1 0.0227,-0.44545 h -5.1e-4 v -10.8195 h 9.64747 a 10.952863,11.350028 0 0 1 1.28313,-0.0847 10.952863,11.350028 0 0 1 0.30127,0.005 V 91.963215 a 21.563541,21.599665 0 0 0 -0.0796,-0.001 v -0.0387 H 206.9432 v -3.635961 h -0.006 a 9.9413111,9.8189306 0 0 0 0.007,-0.20257 9.9413111,9.8189306 0 0 0 -9.94048,-9.819037 z" /><path
       id="path46534"
       style="fill:#ffffff;fill-opacity:1;stroke-width:0.247368;stroke-dasharray:none"
       d="m 184.949,90.263835 a 22.038757,21.59532 0 0 0 -22.03897,21.595065 22.038757,21.59532 0 0 0 0.0388,1.01544 h -0.0124 v 13.67927 a 9.9773035,9.9773045 0 0 0 -0.0264,10e-4 v 19.91868 a 9.9773035,9.9773045 0 0 0 0.48783,0.0181 9.9773035,9.9773045 0 0 0 9.97717,-9.97769 9.9773035,9.9773045 0 0 0 -0.0258,-0.70642 v -5.60327 a 22.038757,21.59532 0 0 0 11.59981,3.25045 22.038757,21.59532 0 0 0 22.03845,-21.59558 22.038757,21.59532 0 0 0 -22.03845,-21.595065 z m -0.0889,10.021615 a 11.573673,11.484986 0 0 1 11.57397,11.48456 11.573673,11.484986 0 0 1 -11.57397,11.48509 11.573673,11.484986 0 0 1 -11.51093,-10.30428 v -0.0765 h -0.004 a 11.573673,11.484986 0 0 1 -0.0584,-1.10433 11.573673,11.484986 0 0 1 11.57346,-11.48456 z" /></g></svg>
